<svg id="Layer_1" data-name="Layer 1" xmlns="http://www.w3.org/2000/svg" viewBox="0 0 1440 338"><defs><style>.cls-1{fill:#252f8b;}.cls-2{fill:#fff;}.cls-3{fill:#ffca00;}.cls-4{fill:#f32c7f;}.cls-5{fill:#42bcd3;}.cls-6{fill:none;}</style></defs><title>Untitled-1</title><rect y="0.01" width="1440" height="338"/><path class="cls-1" d="M638.46,176.33a6.65,6.65,0,0,1,4.7,1.95l4.71-4.71A13.31,13.31,0,0,0,625.15,183h6.65A6.66,6.66,0,0,1,638.46,176.33Z"/><path class="cls-2" d="M651.77,189.65h-6.66a6.66,6.66,0,0,1-13.31,0h-6.65a13.31,13.31,0,1,0,26.62,0Z"/><path class="cls-3" d="M638.46,196.3a6.65,6.65,0,0,0,6.65-6.65H631.8A6.66,6.66,0,0,0,638.46,196.3Z"/><path class="cls-4" d="M648.44,189.65h3.33v-3.33A3.33,3.33,0,0,1,648.44,189.65Z"/><path class="cls-4" d="M648.44,189.65a3.33,3.33,0,0,1,0-6.66h-10v6.66Z"/><path class="cls-4" d="M651.77,186.32V183h-3.33A3.33,3.33,0,0,1,651.77,186.32Z"/><rect class="cls-5" x="625.15" y="182.99" width="6.66" height="6.66"/><circle class="cls-3" cx="648.44" cy="186.32" r="3.33"/><rect class="cls-5" x="744.96" y="169.68" width="6.66" height="13.31"/><rect class="cls-5" x="744.96" y="189.65" width="6.66" height="13.48"/><polygon class="cls-3" points="768.78 189.65 762.26 189.65 762.26 203.12 768.92 203.12 768.78 189.65"/><rect class="cls-3" x="751.61" y="182.99" width="10.65" height="6.66"/><rect class="cls-1" x="744.96" y="182.99" width="6.66" height="6.66"/><polygon class="cls-3" points="768.78 183.13 768.85 183.06 768.85 169.68 762.26 169.68 762.26 182.99 768.78 182.99 768.78 183.13"/><rect class="cls-4" x="762.26" y="182.99" width="6.51" height="6.66"/><polygon class="cls-3" points="780.9 183.15 774.25 189.65 774.25 203.02 780.9 203.02 780.9 183.15"/><polygon class="cls-4" points="780.9 169.68 774.25 169.68 774.25 189.65 780.9 183.15 780.9 169.68"/><polygon class="cls-1" points="727.66 244.5 734.32 244.5 734.32 224.64 727.66 231.13 727.66 244.5"/><polygon class="cls-5" points="727.66 231.13 734.32 224.64 734.32 211.16 727.66 211.16 727.66 231.13"/><path class="cls-3" d="M799.54,196.3V203a13.27,13.27,0,0,0,9.41-3.9l-4.71-4.71A6.59,6.59,0,0,1,799.54,196.3Z"/><path class="cls-1" d="M806.19,189.65a6.59,6.59,0,0,1-2,4.7l4.71,4.71a13.27,13.27,0,0,0,3.9-9.41Z"/><path class="cls-2" d="M804.24,194.35l-4.7-4.7v6.65A6.59,6.59,0,0,0,804.24,194.35Z"/><path class="cls-5" d="M806.19,189.65h-6.65l4.7,4.7A6.59,6.59,0,0,0,806.19,189.65Z"/><path class="cls-5" d="M792.88,183a6.66,6.66,0,1,1,13.31,0h6.66a13.31,13.31,0,0,0-26.62,0Z"/><rect class="cls-2" x="786.23" y="182.99" width="6.66" height="6.66"/><path class="cls-4" d="M792.88,189.65h-6.65A13.31,13.31,0,0,0,799.54,203V196.3A6.66,6.66,0,0,1,792.88,189.65Z"/><path class="cls-3" d="M799.54,196.3v-6.65h-6.66A6.66,6.66,0,0,0,799.54,196.3Z"/><polygon class="cls-1" points="645.13 231.13 651.78 224.47 651.78 217.82 645.13 217.82 645.13 231.13"/><rect class="cls-2" x="645.12" y="211.16" width="6.66" height="6.66"/><polygon class="cls-4" points="645.13 231.13 645.13 244.45 651.78 244.45 651.78 224.47 645.13 231.13"/><path class="cls-3" d="M654.44,211.16v6.66a6.66,6.66,0,0,1,6.66,6.65h6.66A13.31,13.31,0,0,0,654.44,211.16Z"/><rect class="cls-3" x="661.1" y="224.47" width="6.66" height="6.66"/><path class="cls-1" d="M661.1,231.13h-6.66v6.66A6.66,6.66,0,0,0,661.1,231.13Z"/><path class="cls-4" d="M654.44,237.79v6.65a13.31,13.31,0,0,0,13.32-13.31H661.1A6.66,6.66,0,0,1,654.44,237.79Z"/><polygon class="cls-5" points="673.08 217.82 672.93 237.79 679.74 237.79 679.74 217.82 673.08 217.82"/><path class="cls-2" d="M690.39,211.16H673.08v6.66h17.31a3.33,3.33,0,0,0,3.33-3.33h0A3.33,3.33,0,0,0,690.39,211.16Z"/><path class="cls-4" d="M690.39,244.44a3.33,3.33,0,1,0,0-6.65H679.74v6.65Z"/><rect class="cls-1" x="672.93" y="237.79" width="6.8" height="6.66"/><path class="cls-3" d="M684.4,224.47a3.33,3.33,0,1,0,0,6.66h4a3.33,3.33,0,1,0,0-6.66Z"/><path class="cls-4" d="M715.68,211.16H705a6.66,6.66,0,0,0-6.66,6.66h24A6.66,6.66,0,0,0,715.68,211.16Z"/><path class="cls-4" d="M701.7,237.79a3.33,3.33,0,1,1,0,6.65h8.66v-6.65Z"/><path class="cls-5" d="M710.36,220.48h0v6.66h0a5.32,5.32,0,0,1,5.32,5.32h6.66A12,12,0,0,0,710.36,220.48Z"/><path class="cls-1" d="M710.36,227.14h0v5.32h5.32A5.32,5.32,0,0,0,710.36,227.14Z"/><path class="cls-2" d="M698.37,220.48h0a6.66,6.66,0,0,0,6.66,6.66h5.33v-6.66Z"/><path class="cls-3" d="M705,241.11a3.33,3.33,0,0,0-3.33-3.32h-.34a3.58,3.58,0,0,0-.65.14,3.13,3.13,0,0,0-1.12.61,3.33,3.33,0,0,0,1.12,5.74,3.58,3.58,0,0,0,.65.14h.34A3.33,3.33,0,0,0,705,241.11Z"/><path class="cls-1" d="M714.12,236.23a5.31,5.31,0,0,1-3.76,1.56h0v6.65h0a12,12,0,0,0,8.47-3.51Z"/><path class="cls-5" d="M714.12,236.23l-3.76-3.77v5.33h0A5.31,5.31,0,0,0,714.12,236.23Z"/><path class="cls-4" d="M714.12,236.23l4.71,4.7a11.92,11.92,0,0,0,3.51-8.47h-6.66A5.35,5.35,0,0,1,714.12,236.23Z"/><path class="cls-3" d="M715.68,232.46h-5.32l3.76,3.77A5.35,5.35,0,0,0,715.68,232.46Z"/><path class="cls-3" d="M753,217.82a6.64,6.64,0,0,1,4.7,1.94l4.71-4.7a13.31,13.31,0,0,0-22.73,9.41h6.66A6.66,6.66,0,0,1,753,217.82Z"/><path class="cls-4" d="M759.61,231.13a6.66,6.66,0,1,1-13.31,0h-6.66a13.32,13.32,0,0,0,26.63,0Z"/><path class="cls-2" d="M753,237.79a6.66,6.66,0,0,0,6.65-6.66H746.3A6.66,6.66,0,0,0,753,237.79Z"/><path class="cls-5" d="M766.27,227.8v-3.33h-3.33A3.33,3.33,0,0,1,766.27,227.8Z"/><path class="cls-5" d="M762.94,231.13h3.33V227.8A3.33,3.33,0,0,1,762.94,231.13Z"/><path class="cls-5" d="M762.94,231.13a3.33,3.33,0,0,1,0-6.66H753v6.66Z"/><rect class="cls-1" x="739.64" y="224.47" width="6.66" height="6.66"/><circle class="cls-1" cx="762.94" cy="227.8" r="3.33"/><polygon class="cls-6" points="788.9 235.32 788.9 235.12 788.76 235.12 788.9 235.32"/><polygon class="cls-1" points="788.9 235.32 795.55 244.61 795.55 211.16 788.9 211.16 788.9 235.32"/><polygon class="cls-4" points="788.76 235.12 778.25 235.12 778.25 244.61 788.9 244.61 788.9 235.32 788.76 235.12"/><rect class="cls-3" x="771.59" y="235.12" width="6.66" height="9.48"/><polygon class="cls-5" points="788.9 244.61 795.55 244.61 788.9 235.32 788.9 244.61"/><polygon class="cls-3" points="778.25 235.12 788.76 235.12 771.59 211.16 778.25 220.48 778.25 235.12"/><polygon class="cls-2" points="778.25 220.48 771.59 211.16 771.59 235.12 778.25 235.12 778.25 220.48"/><path class="cls-3" d="M679.73,183h-6.66a6.66,6.66,0,0,1-6.66,6.66,13.24,13.24,0,0,1,8.8,3.33A13.28,13.28,0,0,0,679.73,183Z"/><path class="cls-2" d="M673.07,183h-6.66v6.66A6.66,6.66,0,0,0,673.07,183Z"/><path class="cls-3" d="M679.73,203a13.24,13.24,0,0,0-4.52-10,13.28,13.28,0,0,1-8.8,3.32,6.66,6.66,0,0,1,6.66,6.66Z"/><path class="cls-4" d="M666.41,189.65v6.65a13.28,13.28,0,0,0,8.8-3.32A13.24,13.24,0,0,0,666.41,189.65Z"/><path class="cls-1" d="M671.12,178.28l4.71-4.7a13.28,13.28,0,0,0-9.42-3.9v6.65A6.65,6.65,0,0,1,671.12,178.28Z"/><path class="cls-5" d="M666.41,176.33V183l4.71-4.71A6.65,6.65,0,0,0,666.41,176.33Z"/><path class="cls-4" d="M671.12,178.28a6.63,6.63,0,0,1,2,4.71h6.66a13.25,13.25,0,0,0-3.9-9.41Z"/><path class="cls-3" d="M671.12,178.28,666.41,183h6.66A6.63,6.63,0,0,0,671.12,178.28Z"/><polygon class="cls-5" points="663.75 176.34 657.1 176.34 657.1 189.65 663.75 182.99 663.75 176.34"/><rect class="cls-1" x="657.1" y="169.68" width="6.66" height="6.66"/><polygon class="cls-4" points="663.75 182.99 657.1 189.65 657.1 202.96 663.75 196.3 663.75 182.99"/><polygon class="cls-2" points="663.75 202.97 663.75 196.3 657.1 202.97 663.75 202.97"/><path class="cls-4" d="M698.36,176.33h0v-6.65h0A13.31,13.31,0,0,0,685.05,183h6.66A6.66,6.66,0,0,1,698.36,176.33Z"/><path class="cls-3" d="M698.36,183v-6.66h0a6.66,6.66,0,0,0-6.65,6.66Z"/><polygon class="cls-5" points="691.71 189.65 691.71 189.65 685.05 196.3 685.05 202.96 691.71 202.96 691.71 189.65"/><rect class="cls-1" x="705.02" y="189.65" width="6.66" height="13.31"/><polygon class="cls-1" points="698.36 182.99 691.83 189.53 691.71 189.65 705.02 189.65 705.02 182.99 698.36 182.99"/><rect class="cls-4" x="705.02" y="182.99" width="6.66" height="6.66"/><path class="cls-5" d="M703.07,178.28A6.67,6.67,0,0,1,705,183h6.66a13.25,13.25,0,0,0-3.9-9.41Z"/><path class="cls-2" d="M705,183a6.67,6.67,0,0,0-1.95-4.71L698.36,183Z"/><polygon class="cls-2" points="685.05 189.65 685.05 196.3 691.71 189.65 685.05 189.65"/><path class="cls-1" d="M703.07,178.28l4.71-4.7a13.28,13.28,0,0,0-9.42-3.9v6.65A6.65,6.65,0,0,1,703.07,178.28Z"/><path class="cls-4" d="M703.07,178.28a6.65,6.65,0,0,0-4.71-1.95V183Z"/><polygon class="cls-3" points="691.71 189.65 691.71 182.99 685.05 182.99 685.05 189.65 691.71 189.65 691.71 189.65"/><polygon class="cls-2" points="691.71 182.99 691.71 189.65 698.36 182.99 691.71 182.99"/><rect class="cls-3" x="717.01" y="169.68" width="6.66" height="6.66"/><polygon class="cls-1" points="717.01 202.96 723.67 196.3 723.67 176.34 717.01 176.34 717.01 202.96"/><polygon class="cls-4" points="717.01 202.97 723.67 202.97 723.67 196.3 717.01 202.96 717.01 202.97"/><path class="cls-4" d="M739.62,183H733a6.66,6.66,0,0,1-6.66,6.66v6.65A13.31,13.31,0,0,0,739.63,183c0-.14,0-.28,0-.42Z"/><path class="cls-3" d="M733,183h-6.66v6.66A6.66,6.66,0,0,0,733,183Z"/><path class="cls-1" d="M733,183h6.64v-.42a13.3,13.3,0,0,0-13.3-12.89v6.65A6.66,6.66,0,0,1,733,183Z"/><path class="cls-5" d="M726.32,176.33V183H733A6.66,6.66,0,0,0,726.32,176.33Z"/></svg>