<svg id="Layer_1" data-name="Layer 1" xmlns="http://www.w3.org/2000/svg" viewBox="0 0 1440 338"><defs><style>.cls-1{fill:#252f8b;}.cls-2{fill:#fff;}.cls-3{fill:#ffca00;}.cls-4{fill:#f32c7f;}.cls-5{fill:#42bcd3;}.cls-6,.cls-7{fill:none;}.cls-7{stroke:#111224;stroke-miterlimit:10;}</style></defs><title>Untitled-1</title><rect width="1440" height="338"/><path class="cls-1" d="M638.46,156.33a6.65,6.65,0,0,1,4.7,1.95l4.71-4.71A13.31,13.31,0,0,0,625.15,163h6.65A6.66,6.66,0,0,1,638.46,156.33Z" transform="translate(0 -0.01)"/><path class="cls-2" d="M651.77,169.65h-6.66a6.66,6.66,0,0,1-13.31,0h-6.65a13.31,13.31,0,1,0,26.62,0Z" transform="translate(0 -0.01)"/><path class="cls-3" d="M638.46,176.3a6.65,6.65,0,0,0,6.65-6.65H631.8A6.66,6.66,0,0,0,638.46,176.3Z" transform="translate(0 -0.01)"/><path class="cls-4" d="M648.44,169.65h3.33v-3.33A3.33,3.33,0,0,1,648.44,169.65Z" transform="translate(0 -0.01)"/><path class="cls-4" d="M648.44,169.65a3.33,3.33,0,0,1,0-6.66h-10v6.66Z" transform="translate(0 -0.01)"/><path class="cls-4" d="M651.77,166.32V163h-3.33A3.33,3.33,0,0,1,651.77,166.32Z" transform="translate(0 -0.01)"/><rect class="cls-5" x="625.15" y="162.98" width="6.66" height="6.66"/><circle class="cls-3" cx="648.44" cy="166.31" r="3.33"/><rect class="cls-5" x="744.96" y="149.67" width="6.66" height="13.31"/><rect class="cls-5" x="744.96" y="169.64" width="6.66" height="13.48"/><polygon class="cls-3" points="768.78 169.64 762.26 169.64 762.26 183.12 768.92 183.12 768.78 169.64"/><rect class="cls-3" x="751.61" y="162.98" width="10.65" height="6.66"/><rect class="cls-1" x="744.96" y="162.98" width="6.66" height="6.66"/><polygon class="cls-3" points="768.78 163.13 768.85 163.06 768.85 149.67 762.26 149.67 762.26 162.99 768.78 162.99 768.78 163.13"/><rect class="cls-4" x="762.26" y="162.98" width="6.51" height="6.66"/><polygon class="cls-3" points="780.9 163.15 774.25 169.64 774.25 183.01 780.9 183.01 780.9 163.15"/><polygon class="cls-4" points="780.9 149.67 774.25 149.67 774.25 169.64 780.9 163.15 780.9 149.67"/><polygon class="cls-1" points="727.66 224.5 734.32 224.5 734.32 204.63 727.66 211.12 727.66 224.5"/><polygon class="cls-5" points="727.66 211.12 734.32 204.63 734.32 191.16 727.66 191.16 727.66 211.12"/><path class="cls-3" d="M799.54,176.3V183a13.27,13.27,0,0,0,9.41-3.9l-4.71-4.71A6.59,6.59,0,0,1,799.54,176.3Z" transform="translate(0 -0.01)"/><path class="cls-1" d="M806.19,169.65a6.59,6.59,0,0,1-2,4.7l4.71,4.71a13.27,13.27,0,0,0,3.9-9.41Z" transform="translate(0 -0.01)"/><path class="cls-2" d="M804.24,174.35l-4.7-4.7v6.65A6.59,6.59,0,0,0,804.24,174.35Z" transform="translate(0 -0.01)"/><path class="cls-5" d="M806.19,169.65h-6.65l4.7,4.7A6.59,6.59,0,0,0,806.19,169.65Z" transform="translate(0 -0.01)"/><path class="cls-5" d="M792.88,163a6.66,6.66,0,1,1,13.31,0h6.66a13.31,13.31,0,0,0-26.62,0Z" transform="translate(0 -0.01)"/><rect class="cls-2" x="786.23" y="162.98" width="6.66" height="6.66"/><path class="cls-4" d="M792.88,169.65h-6.65A13.31,13.31,0,0,0,799.54,183V176.3A6.66,6.66,0,0,1,792.88,169.65Z" transform="translate(0 -0.01)"/><path class="cls-3" d="M799.54,176.3v-6.65h-6.66A6.66,6.66,0,0,0,799.54,176.3Z" transform="translate(0 -0.01)"/><polygon class="cls-1" points="645.13 211.12 651.78 204.47 651.78 197.81 645.13 197.81 645.13 211.12"/><rect class="cls-2" x="645.12" y="191.16" width="6.66" height="6.66"/><polygon class="cls-4" points="645.13 211.12 645.13 224.45 651.78 224.45 651.78 204.47 645.13 211.12"/><path class="cls-3" d="M654.44,191.16v6.66a6.66,6.66,0,0,1,6.66,6.65h6.66A13.31,13.31,0,0,0,654.44,191.16Z" transform="translate(0 -0.01)"/><rect class="cls-3" x="661.1" y="204.47" width="6.66" height="6.66"/><path class="cls-1" d="M661.1,211.13h-6.66v6.66A6.66,6.66,0,0,0,661.1,211.13Z" transform="translate(0 -0.01)"/><path class="cls-4" d="M654.44,217.79v6.65a13.31,13.31,0,0,0,13.32-13.31H661.1A6.66,6.66,0,0,1,654.44,217.79Z" transform="translate(0 -0.01)"/><polygon class="cls-5" points="673.08 197.81 672.93 217.78 679.74 217.78 679.74 197.81 673.08 197.81"/><path class="cls-2" d="M690.39,191.16H673.08v6.66h17.31a3.33,3.33,0,0,0,3.33-3.33h0A3.33,3.33,0,0,0,690.39,191.16Z" transform="translate(0 -0.01)"/><path class="cls-4" d="M690.39,224.44a3.33,3.33,0,1,0,0-6.65H679.74v6.65Z" transform="translate(0 -0.01)"/><rect class="cls-1" x="672.93" y="217.78" width="6.8" height="6.66"/><path class="cls-3" d="M684.4,204.47a3.33,3.33,0,1,0,0,6.66h4a3.33,3.33,0,1,0,0-6.66Z" transform="translate(0 -0.01)"/><path class="cls-4" d="M715.68,191.16H705a6.66,6.66,0,0,0-6.66,6.66h24A6.66,6.66,0,0,0,715.68,191.16Z" transform="translate(0 -0.01)"/><path class="cls-4" d="M701.7,217.79a3.33,3.33,0,1,1,0,6.65h8.66v-6.65Z" transform="translate(0 -0.01)"/><path class="cls-5" d="M710.36,200.48h0v6.66h0a5.32,5.32,0,0,1,5.32,5.32h6.66A12,12,0,0,0,710.36,200.48Z" transform="translate(0 -0.01)"/><path class="cls-1" d="M710.36,207.14h0v5.32h5.32A5.32,5.32,0,0,0,710.36,207.14Z" transform="translate(0 -0.01)"/><path class="cls-2" d="M698.37,200.48h0a6.66,6.66,0,0,0,6.66,6.66h5.33v-6.66Z" transform="translate(0 -0.01)"/><path class="cls-3" d="M705,221.11a3.33,3.33,0,0,0-3.33-3.32h-.34a3.58,3.58,0,0,0-.65.14,3.13,3.13,0,0,0-1.12.61,3.33,3.33,0,0,0,1.12,5.74,3.58,3.58,0,0,0,.65.14h.34A3.33,3.33,0,0,0,705,221.11Z" transform="translate(0 -0.01)"/><path class="cls-1" d="M714.12,216.23a5.31,5.31,0,0,1-3.76,1.56h0v6.65h0a12,12,0,0,0,8.47-3.51Z" transform="translate(0 -0.01)"/><path class="cls-5" d="M714.12,216.23l-3.76-3.77v5.33h0A5.31,5.31,0,0,0,714.12,216.23Z" transform="translate(0 -0.01)"/><path class="cls-4" d="M714.12,216.23l4.71,4.7a11.92,11.92,0,0,0,3.51-8.47h-6.66A5.35,5.35,0,0,1,714.12,216.23Z" transform="translate(0 -0.01)"/><path class="cls-3" d="M715.68,212.46h-5.32l3.76,3.77A5.35,5.35,0,0,0,715.68,212.46Z" transform="translate(0 -0.01)"/><path class="cls-3" d="M753,197.82a6.64,6.64,0,0,1,4.7,1.94l4.71-4.7a13.31,13.31,0,0,0-22.73,9.41h6.66A6.66,6.66,0,0,1,753,197.82Z" transform="translate(0 -0.01)"/><path class="cls-4" d="M759.61,211.13a6.66,6.66,0,1,1-13.31,0h-6.66a13.32,13.32,0,0,0,26.63,0Z" transform="translate(0 -0.01)"/><path class="cls-2" d="M753,217.79a6.66,6.66,0,0,0,6.65-6.66H746.3A6.66,6.66,0,0,0,753,217.79Z" transform="translate(0 -0.01)"/><path class="cls-5" d="M766.27,207.8v-3.33h-3.33A3.33,3.33,0,0,1,766.27,207.8Z" transform="translate(0 -0.01)"/><path class="cls-5" d="M762.94,211.13h3.33V207.8A3.33,3.33,0,0,1,762.94,211.13Z" transform="translate(0 -0.01)"/><path class="cls-5" d="M762.94,211.13a3.33,3.33,0,0,1,0-6.66H753v6.66Z" transform="translate(0 -0.01)"/><rect class="cls-1" x="739.64" y="204.47" width="6.66" height="6.66"/><circle class="cls-1" cx="762.94" cy="207.8" r="3.33"/><polygon class="cls-6" points="788.9 215.31 788.9 215.12 788.76 215.12 788.9 215.31"/><polygon class="cls-1" points="788.9 215.31 795.55 224.6 795.55 191.16 788.9 191.16 788.9 215.31"/><polygon class="cls-4" points="788.76 215.12 778.25 215.12 778.25 224.6 788.9 224.6 788.9 215.31 788.76 215.12"/><rect class="cls-3" x="771.59" y="215.12" width="6.66" height="9.48"/><polygon class="cls-5" points="788.9 224.6 795.55 224.6 788.9 215.31 788.9 224.6"/><polygon class="cls-3" points="778.25 215.12 788.76 215.12 771.59 191.16 778.25 200.47 778.25 215.12"/><polygon class="cls-2" points="778.25 200.47 771.59 191.16 771.59 215.12 778.25 215.12 778.25 200.47"/><path class="cls-3" d="M679.73,163h-6.66a6.66,6.66,0,0,1-6.66,6.66,13.24,13.24,0,0,1,8.8,3.33A13.28,13.28,0,0,0,679.73,163Z" transform="translate(0 -0.01)"/><path class="cls-2" d="M673.07,163h-6.66v6.66A6.66,6.66,0,0,0,673.07,163Z" transform="translate(0 -0.01)"/><path class="cls-3" d="M679.73,183a13.24,13.24,0,0,0-4.52-10,13.28,13.28,0,0,1-8.8,3.32,6.66,6.66,0,0,1,6.66,6.66Z" transform="translate(0 -0.01)"/><path class="cls-4" d="M666.41,169.65v6.65a13.28,13.28,0,0,0,8.8-3.32A13.24,13.24,0,0,0,666.41,169.65Z" transform="translate(0 -0.01)"/><path class="cls-1" d="M671.12,158.28l4.71-4.7a13.28,13.28,0,0,0-9.42-3.9v6.65A6.65,6.65,0,0,1,671.12,158.28Z" transform="translate(0 -0.01)"/><path class="cls-5" d="M666.41,156.33V163l4.71-4.71A6.65,6.65,0,0,0,666.41,156.33Z" transform="translate(0 -0.01)"/><path class="cls-4" d="M671.12,158.28a6.63,6.63,0,0,1,2,4.71h6.66a13.25,13.25,0,0,0-3.9-9.41Z" transform="translate(0 -0.01)"/><path class="cls-3" d="M671.12,158.28,666.41,163h6.66A6.63,6.63,0,0,0,671.12,158.28Z" transform="translate(0 -0.01)"/><polygon class="cls-5" points="663.75 156.33 657.1 156.33 657.1 169.64 663.75 162.99 663.75 156.33"/><rect class="cls-1" x="657.1" y="149.67" width="6.66" height="6.66"/><polygon class="cls-4" points="663.75 162.99 657.1 169.64 657.1 182.95 663.75 176.3 663.75 162.99"/><polygon class="cls-2" points="663.75 182.96 663.75 176.3 657.1 182.96 663.75 182.96"/><path class="cls-4" d="M698.36,156.33h0v-6.65h0A13.31,13.31,0,0,0,685.05,163h6.66A6.66,6.66,0,0,1,698.36,156.33Z" transform="translate(0 -0.01)"/><path class="cls-3" d="M698.36,163v-6.66h0a6.66,6.66,0,0,0-6.65,6.66Z" transform="translate(0 -0.01)"/><polygon class="cls-5" points="691.71 169.64 691.71 169.64 685.05 176.3 685.05 182.95 691.71 182.95 691.71 169.64"/><rect class="cls-1" x="705.02" y="169.64" width="6.66" height="13.31"/><polygon class="cls-7" points="691.71 169.64 691.71 169.64 691.71 169.64 691.71 169.64"/><polygon class="cls-1" points="698.36 162.99 691.83 169.52 691.71 169.64 705.02 169.64 705.02 162.99 698.36 162.99"/><rect class="cls-4" x="705.02" y="162.98" width="6.66" height="6.66"/><path class="cls-5" d="M703.07,158.28A6.67,6.67,0,0,1,705,163h6.66a13.25,13.25,0,0,0-3.9-9.41Z" transform="translate(0 -0.01)"/><path class="cls-2" d="M705,163a6.67,6.67,0,0,0-1.95-4.71L698.36,163Z" transform="translate(0 -0.01)"/><polygon class="cls-2" points="685.05 169.64 685.05 176.3 691.71 169.64 685.05 169.64"/><path class="cls-1" d="M703.07,158.28l4.71-4.7a13.28,13.28,0,0,0-9.42-3.9v6.65A6.65,6.65,0,0,1,703.07,158.28Z" transform="translate(0 -0.01)"/><path class="cls-4" d="M703.07,158.28a6.65,6.65,0,0,0-4.71-1.95V163Z" transform="translate(0 -0.01)"/><polygon class="cls-3" points="691.71 169.64 691.71 162.99 685.05 162.99 685.05 169.64 691.71 169.64 691.71 169.64"/><polygon class="cls-2" points="691.71 162.99 691.71 169.64 698.36 162.99 691.71 162.99"/><rect class="cls-3" x="717.01" y="149.67" width="6.66" height="6.66"/><polygon class="cls-1" points="717.01 182.95 723.67 176.3 723.67 156.33 717.01 156.33 717.01 182.95"/><polygon class="cls-4" points="717.01 182.96 723.67 182.96 723.67 176.3 717.01 182.95 717.01 182.96"/><path class="cls-4" d="M739.62,163H733a6.66,6.66,0,0,1-6.66,6.66v6.65A13.31,13.31,0,0,0,739.63,163c0-.14,0-.28,0-.42Z" transform="translate(0 -0.01)"/><path class="cls-3" d="M733,163h-6.66v6.66A6.66,6.66,0,0,0,733,163Z" transform="translate(0 -0.01)"/><path class="cls-1" d="M733,163h6.64v-.42a13.3,13.3,0,0,0-13.3-12.89v6.65A6.66,6.66,0,0,1,733,163Z" transform="translate(0 -0.01)"/><path class="cls-5" d="M726.32,156.33V163H733A6.66,6.66,0,0,0,726.32,156.33Z" transform="translate(0 -0.01)"/></svg>